<?xml version="1.0" standalone="no"?>
<!DOCTYPE svg PUBLIC "-//W3C//DTD SVG 20010904//EN"
 "http://www.w3.org/TR/2001/REC-SVG-20010904/DTD/svg10.dtd">
<svg version="1.0" xmlns="http://www.w3.org/2000/svg"
 width="380.000000pt" height="350.000000pt" viewBox="0 0 380.000000 350.000000"
 preserveAspectRatio="xMidYMid meet">

<g transform="translate(0.000000,350.000000) scale(0.100000,-0.100000)"
fill="#000000" stroke="none">
<path d="M1182 2888 c-9 -13 -72 -631 -72 -712 0 -95 73 -172 172 -185 l53 -6
5 -461 5 -460 27 -41 c74 -112 240 -109 319 5 l24 36 3 463 3 463 40 0 c77 0
159 60 181 131 14 49 -49 744 -70 765 -19 19 -674 20 -690 2z m162 -63 c3 -8
12 -15 21 -15 9 0 18 7 21 15 4 11 21 15 59 15 38 0 55 -4 59 -15 3 -8 15 -15
26 -15 11 0 23 7 26 15 4 11 21 15 55 15 35 0 51 -4 55 -15 4 -8 15 -15 25
-15 11 0 22 7 25 15 5 11 21 15 59 15 l54 0 5 -42 c16 -122 57 -570 56 -613
-1 -86 -50 -131 -150 -141 -36 -4 -68 -12 -72 -18 -4 -6 -8 -222 -8 -480 l0
-468 -39 -39 c-38 -38 -56 -44 -121 -39 -33 2 -65 24 -87 57 -16 25 -18 70
-23 503 l-5 475 -70 8 c-108 12 -148 50 -148 140 0 54 50 595 59 635 4 19 10
22 58 22 39 0 55 -4 60 -15z"/>
<path d="M1340 2705 c0 -22 4 -26 23 -23 14 2 22 10 22 23 0 13 -8 21 -22 23
-19 3 -23 -1 -23 -23z"/>
<path d="M1504 2715 c-8 -20 4 -35 26 -35 23 0 32 13 24 34 -8 20 -43 21 -50
1z"/>
<path d="M1667 2717 c-8 -21 8 -39 29 -35 27 5 25 42 -2 46 -12 2 -24 -3 -27
-11z"/>
<path d="M1347 2594 c-4 -4 -7 -16 -7 -26 0 -13 7 -18 26 -18 21 0 25 4 22 22
-3 23 -27 35 -41 22z"/>
<path d="M1504 2585 c-8 -20 4 -35 26 -35 25 0 35 17 20 35 -16 19 -39 19 -46
0z"/>
<path d="M1667 2587 c-8 -21 8 -39 29 -35 27 5 25 42 -2 46 -12 2 -24 -3 -27
-11z"/>
<path d="M1347 2464 c-12 -12 -8 -42 6 -47 21 -8 39 8 35 29 -3 19 -29 30 -41
18z"/>
<path d="M1503 2454 c-3 -8 1 -22 9 -30 12 -12 17 -12 33 0 16 12 17 16 6 30
-17 20 -40 21 -48 0z"/>
<path d="M1677 2463 c-12 -12 -7 -41 7 -46 19 -7 40 18 32 38 -6 15 -28 20
-39 8z"/>
<path d="M1504 1535 c-8 -20 4 -35 26 -35 25 0 35 17 20 35 -16 19 -39 19 -46
0z"/>
<path d="M1503 1404 c-3 -8 1 -22 9 -30 12 -12 17 -12 33 0 16 12 17 16 6 30
-17 20 -40 21 -48 0z"/>
<path d="M1503 1274 c-3 -8 2 -23 11 -32 15 -15 17 -15 33 0 13 14 14 20 3 32
-16 20 -39 20 -47 0z"/>
<path d="M1503 1144 c-3 -8 2 -23 11 -32 15 -15 17 -15 33 0 13 14 14 20 3 32
-16 20 -39 20 -47 0z"/>
<path d="M2202 2891 c-10 -6 -12 -192 -10 -918 l3 -911 31 -38 c54 -67 78 -79
153 -79 57 0 74 4 109 27 76 51 76 51 82 423 l5 330 46 21 c25 12 58 36 72 54
52 61 52 77 8 400 -23 162 -46 318 -53 345 -36 159 -164 295 -313 333 -65 16
-119 22 -133 13z m183 -95 c75 -35 140 -98 175 -170 28 -57 36 -96 76 -377 25
-173 43 -331 41 -353 -7 -50 -48 -93 -107 -110 l-45 -13 -5 -344 c-5 -317 -7
-346 -24 -372 -38 -56 -121 -75 -184 -43 -65 34 -62 -14 -62 947 l0 872 43 -7
c23 -4 65 -17 92 -30z"/>
<path d="M2357 1537 c-8 -21 8 -39 29 -35 27 5 25 42 -2 46 -12 2 -24 -3 -27
-11z"/>
<path d="M2356 1404 c-8 -21 1 -34 24 -34 10 0 21 4 24 9 10 16 -5 41 -24 41
-10 0 -21 -7 -24 -16z"/>
<path d="M2360 1274 c-11 -12 -10 -18 3 -32 16 -15 18 -15 34 0 13 14 14 20 3
32 -7 9 -16 16 -20 16 -4 0 -13 -7 -20 -16z"/>
<path d="M2360 1144 c-11 -12 -11 -18 2 -30 16 -16 48 -9 48 10 0 13 -20 36
-31 36 -4 0 -12 -7 -19 -16z"/>
</g>
</svg>
