<?xml version="1.0" standalone="no"?>
<!DOCTYPE svg PUBLIC "-//W3C//DTD SVG 20010904//EN"
 "http://www.w3.org/TR/2001/REC-SVG-20010904/DTD/svg10.dtd">
<svg version="1.0" xmlns="http://www.w3.org/2000/svg"
 width="322.000000pt" height="307.000000pt" viewBox="0 0 322.000000 307.000000"
 preserveAspectRatio="xMidYMid meet">

<g transform="translate(0.000000,307.000000) scale(0.100000,-0.100000)"
fill="#000000" stroke="none">
<path d="M1460 2541 l0 -101 -33 0 c-57 0 -199 -41 -270 -77 -92 -49 -157
-121 -185 -207 -12 -37 -22 -77 -22 -90 0 -19 -7 -26 -30 -31 -42 -9 -139 -75
-184 -125 -21 -23 -50 -68 -64 -99 -23 -48 -27 -69 -27 -156 0 -86 3 -107 25
-150 29 -60 98 -132 160 -166 l45 -24 67 -285 c87 -369 82 -354 125 -387 l36
-28 571 0 c615 0 612 0 651 53 12 17 45 136 91 330 66 278 74 306 102 335 86
89 142 231 142 359 0 271 -180 511 -493 658 -60 28 -103 58 -148 101 -110 106
-276 172 -467 185 l-92 7 0 -102z m176 28 c165 -29 296 -96 381 -195 29 -33
55 -54 68 -54 30 0 160 -69 243 -129 85 -62 171 -155 179 -194 3 -15 13 -32
23 -37 9 -5 29 -45 44 -90 30 -92 37 -212 16 -290 -17 -62 -62 -148 -102 -193
l-33 -38 -70 36 c-88 45 -182 65 -311 65 -127 0 -220 -17 -421 -79 -205 -63
-278 -75 -444 -68 -247 9 -409 82 -483 217 -24 43 -28 64 -28 123 0 162 94
288 254 343 45 15 45 15 52 72 21 184 175 298 444 327 35 4 62 12 63 18 0 7 0
45 -1 84 -1 40 2 77 5 83 8 13 46 13 121 -1z m620 -1195 c80 -16 164 -64 164
-91 0 -10 -29 -142 -65 -293 -56 -238 -69 -278 -91 -298 l-25 -22 -558 0
c-525 0 -560 1 -581 18 -19 15 -34 68 -90 303 -37 156 -66 286 -65 287 2 2 35
-3 74 -12 38 -9 82 -16 96 -16 14 0 28 -7 31 -15 7 -16 35 -20 49 -6 6 5 59
11 118 14 87 4 109 2 114 -9 8 -21 43 -17 51 7 8 22 66 42 330 115 155 42 302
48 448 18z"/>
<path d="M1597 2394 c-4 -4 -7 -16 -7 -26 0 -14 6 -19 23 -16 14 2 22 10 22
23 0 20 -25 32 -38 19z"/>
<path d="M1707 2323 c-21 -21 9 -63 34 -47 15 9 10 41 -7 48 -19 7 -19 7 -27
-1z"/>
<path d="M2096 2235 c-7 -20 3 -45 18 -45 23 0 36 22 25 42 -12 22 -35 24 -43
3z"/>
<path d="M2100 2085 c0 -22 4 -26 23 -23 14 2 22 10 22 23 0 13 -8 21 -22 23
-19 3 -23 -1 -23 -23z"/>
<path d="M1063 2019 c-17 -17 -4 -39 24 -39 20 0 24 4 21 22 -3 26 -28 34 -45
17z"/>
<path d="M2062 1958 c4 -30 43 -33 43 -3 0 13 -8 21 -23 23 -20 3 -23 0 -20
-20z"/>
<path d="M1183 1954 c-3 -8 -1 -20 5 -26 16 -16 42 -2 42 22 0 24 -38 28 -47
4z"/>
<path d="M1294 1886 c-8 -21 3 -36 27 -36 15 0 20 6 17 22 -4 27 -35 37 -44
14z"/>
<path d="M2490 1855 c0 -22 4 -26 23 -23 14 2 22 10 22 23 0 13 -8 21 -22 23
-19 3 -23 -1 -23 -23z"/>
<path d="M1365 1780 c-9 -15 4 -50 19 -50 22 0 36 22 25 42 -11 20 -34 24 -44
8z"/>
<path d="M2427 1747 c-8 -21 8 -39 29 -35 27 5 25 42 -2 46 -12 2 -24 -3 -27
-11z"/>
<path d="M2327 1674 c-4 -4 -7 -16 -7 -26 0 -14 6 -19 23 -16 14 2 22 10 22
23 0 20 -25 32 -38 19z"/>
<path d="M2202 1651 c-19 -11 -11 -45 11 -49 9 -2 20 4 23 13 9 21 -16 47 -34
36z"/>
<path d="M1888 1258 c-8 -21 2 -38 22 -38 23 0 32 13 24 34 -7 19 -40 21 -46
4z"/>
<path d="M2171 1256 c-9 -11 -8 -18 5 -31 15 -15 18 -15 32 -1 13 12 13 18 2
30 -15 20 -24 20 -39 2z"/>
<path d="M1171 1126 c-13 -16 -4 -46 14 -46 7 0 18 6 24 14 9 11 8 18 -4 30
-20 19 -20 19 -34 2z"/>
<path d="M1431 1127 c-8 -10 -7 -19 4 -33 13 -18 15 -18 31 -2 14 14 15 20 4
32 -15 19 -24 20 -39 3z"/>
<path d="M1891 1127 c-8 -10 -7 -19 4 -33 13 -18 15 -18 31 -2 14 14 15 20 4
32 -15 19 -24 20 -39 3z"/>
<path d="M2161 1130 c-19 -11 -9 -45 14 -45 13 0 21 8 23 21 3 23 -17 37 -37
24z"/>
<path d="M1184 985 c-4 -9 -2 -21 4 -27 15 -15 44 -1 40 19 -4 23 -36 29 -44
8z"/>
<path d="M1427 987 c-8 -21 8 -39 29 -35 27 5 25 42 -2 46 -12 2 -24 -3 -27
-11z"/>
<path d="M1888 988 c-8 -21 2 -38 22 -38 23 0 32 13 24 34 -7 19 -40 21 -46 4z"/>
<path d="M2134 985 c-8 -19 3 -35 25 -35 24 0 30 8 24 31 -6 22 -41 26 -49 4z"/>
<path d="M1201 856 c-9 -11 -8 -18 4 -30 20 -20 31 -20 39 -1 13 36 -19 60
-43 31z"/>
<path d="M1431 856 c-9 -11 -8 -18 5 -31 14 -14 19 -14 31 -2 15 15 8 47 -12
47 -7 0 -18 -6 -24 -14z"/>
<path d="M1891 856 c-9 -11 -8 -18 5 -31 14 -14 19 -14 31 -2 15 15 8 47 -12
47 -7 0 -18 -6 -24 -14z"/>
<path d="M2121 856 c-9 -11 -8 -18 5 -31 15 -15 18 -15 32 -1 13 12 13 18 2
30 -15 20 -24 20 -39 2z"/>
</g>
</svg>
