<?xml version="1.0" standalone="no"?>
<!DOCTYPE svg PUBLIC "-//W3C//DTD SVG 20010904//EN"
 "http://www.w3.org/TR/2001/REC-SVG-20010904/DTD/svg10.dtd">
<svg version="1.0" xmlns="http://www.w3.org/2000/svg"
 width="359.000000pt" height="297.000000pt" viewBox="0 0 359.000000 297.000000"
 preserveAspectRatio="xMidYMid meet">

<g transform="translate(0.000000,297.000000) scale(0.100000,-0.100000)"
fill="#000000" stroke="none">
<path d="M815 2588 c-2 -7 -6 -85 -8 -173 -3 -102 -15 -227 -33 -345 -34 -229
-39 -465 -11 -569 36 -133 118 -236 237 -294 59 -29 73 -32 160 -32 105 0 157
17 230 75 21 16 40 30 42 30 8 0 -9 -91 -36 -190 -36 -136 -54 -249 -62 -398
-7 -123 -6 -130 13 -140 25 -14 43 2 43 36 0 79 78 257 180 410 l63 93 38 -79
c78 -161 207 -232 419 -233 114 0 171 12 265 57 155 73 274 224 373 474 16 41
60 170 97 285 37 116 82 241 101 278 19 37 34 75 34 83 0 20 -101 66 -265 119
-353 116 -672 130 -906 40 -12 -5 -28 11 -63 63 -134 201 -390 361 -654 407
-106 19 -251 20 -257 3z m175 -49 c241 -29 442 -123 594 -275 49 -49 136 -163
136 -177 0 -2 -24 -20 -52 -39 -92 -61 -166 -145 -217 -247 -17 -32 -26 -40
-34 -32 -15 15 -44 14 -50 -3 -9 -23 21 -42 43 -29 17 11 17 9 4 -34 -19 -62
-18 -166 3 -258 l16 -76 -37 -38 c-21 -22 -61 -52 -90 -67 -47 -27 -60 -29
-152 -29 -98 0 -102 1 -160 36 -82 51 -138 122 -166 212 -34 108 -32 343 6
607 15 107 30 254 32 325 2 72 4 131 4 133 0 4 36 2 120 -9z m1432 -449 c150
-29 468 -134 468 -154 0 -2 -12 -30 -26 -62 -15 -33 -64 -172 -110 -311 -139
-424 -239 -584 -419 -673 -151 -75 -358 -77 -481 -5 -83 49 -164 173 -164 251
0 26 -16 44 -90 103 -156 125 -190 411 -70 591 95 143 246 239 437 275 104 20
313 13 455 -15z m-867 -883 l53 -52 -72 -107 c-40 -59 -84 -127 -97 -153 -13
-25 -27 -45 -30 -45 -9 0 14 117 44 233 14 51 28 111 32 135 4 23 9 42 11 42
3 0 29 -24 59 -53z"/>
<path d="M1057 2364 c-12 -12 -8 -42 6 -47 24 -9 44 10 31 30 -12 20 -27 26
-37 17z"/>
<path d="M1140 2254 c-11 -12 -11 -18 2 -30 16 -16 48 -9 48 10 0 13 -20 36
-31 36 -4 0 -12 -7 -19 -16z"/>
<path d="M1444 2205 c-4 -9 -2 -21 4 -27 15 -15 44 -1 40 19 -4 23 -36 29 -44
8z"/>
<path d="M1221 2151 c-20 -13 -9 -46 17 -49 16 -3 22 2 22 16 0 25 -22 43 -39
33z"/>
<path d="M1374 2096 c-8 -21 13 -46 32 -39 20 8 13 47 -9 51 -9 2 -20 -4 -23
-12z"/>
<path d="M1273 2014 c-6 -16 11 -34 33 -34 13 0 25 35 16 44 -11 12 -43 5 -49
-10z"/>
<path d="M1014 2005 c-7 -18 3 -35 21 -35 18 0 26 15 19 34 -8 20 -33 21 -40
1z"/>
<path d="M1144 1995 c-4 -9 -2 -21 4 -27 15 -15 44 -1 40 19 -4 23 -36 29 -44
8z"/>
<path d="M1323 1894 c-3 -8 1 -22 9 -30 13 -14 17 -14 32 1 13 13 14 20 5 31
-15 19 -38 18 -46 -2z"/>
<path d="M1003 1654 c-3 -8 1 -22 9 -30 13 -14 17 -14 32 1 13 13 14 20 5 31
-15 19 -38 18 -46 -2z"/>
<path d="M1140 1634 c-11 -12 -10 -18 3 -32 16 -15 18 -15 34 0 13 14 14 20 3
32 -7 9 -16 16 -20 16 -4 0 -13 -7 -20 -16z"/>
<path d="M1277 1643 c-12 -12 -7 -41 7 -46 19 -7 40 18 32 38 -6 15 -28 20
-39 8z"/>
<path d="M1961 1966 c-9 -11 -8 -17 5 -30 21 -22 39 -15 39 15 0 28 -26 37
-44 15z"/>
<path d="M2646 1865 c-3 -8 2 -22 11 -30 14 -15 18 -15 31 -1 8 8 12 22 9 30
-8 20 -43 21 -51 1z"/>
<path d="M1984 1845 c-7 -18 3 -35 21 -35 21 0 28 19 15 35 -16 19 -29 19 -36
0z"/>
<path d="M2513 1824 c-3 -8 -1 -20 5 -26 16 -16 42 -2 42 22 0 24 -38 28 -47
4z"/>
<path d="M1704 1805 c-18 -13 -18 -15 -2 -31 18 -18 48 -13 48 9 0 26 -25 38
-46 22z"/>
<path d="M2377 1784 c-10 -10 12 -44 27 -44 13 0 26 20 26 41 0 10 -43 12 -53
3z"/>
<path d="M2023 1734 c-3 -8 2 -23 11 -32 15 -15 17 -15 33 0 13 14 14 20 3 32
-16 20 -39 20 -47 0z"/>
<path d="M2252 1728 c-14 -14 2 -48 22 -48 19 0 29 30 15 46 -14 17 -22 17
-37 2z"/>
<path d="M1736 1681 c-10 -16 5 -42 23 -39 21 4 21 42 -1 46 -9 2 -19 -1 -22
-7z"/>
<path d="M2131 1656 c-13 -16 -4 -46 14 -46 7 0 18 6 24 14 9 11 8 18 -4 30
-20 19 -20 19 -34 2z"/>
<path d="M1805 1576 c-16 -12 -17 -16 -6 -30 7 -9 19 -16 26 -16 19 0 28 32
12 47 -11 11 -16 11 -32 -1z"/>
<path d="M2006 1571 c-10 -16 5 -41 24 -41 19 0 34 25 24 41 -3 5 -14 9 -24 9
-10 0 -21 -4 -24 -9z"/>
<path d="M2192 1528 c4 -30 43 -33 43 -3 0 13 -8 21 -23 23 -20 3 -23 0 -20
-20z"/>
<path d="M1896 1481 c-10 -16 5 -41 24 -41 19 0 34 25 24 41 -3 5 -14 9 -24 9
-10 0 -21 -4 -24 -9z"/>
<path d="M2295 1460 c-8 -14 13 -40 32 -40 20 0 12 44 -9 48 -9 2 -19 -2 -23
-8z"/>
<path d="M2417 1407 c-8 -21 8 -39 29 -35 27 5 25 42 -2 46 -12 2 -24 -3 -27
-11z"/>
<path d="M1795 1390 c-11 -18 6 -51 23 -48 21 4 28 38 10 49 -17 11 -26 11
-33 -1z"/>
<path d="M1962 1377 c-9 -10 -8 -18 2 -32 18 -25 48 -13 44 17 -4 27 -30 35
-46 15z"/>
<path d="M1696 1275 c-3 -8 2 -22 11 -30 14 -15 18 -15 31 -1 8 8 12 22 9 30
-8 20 -43 21 -51 1z"/>
<path d="M2034 1269 c-3 -6 1 -18 10 -27 16 -16 18 -16 31 2 8 10 12 23 9 27
-7 13 -42 11 -50 -2z"/>
<path d="M2141 1191 c-8 -14 -7 -22 5 -32 14 -11 18 -10 30 6 10 13 11 22 3
32 -16 18 -26 16 -38 -6z"/>
<path d="M2253 1144 c-3 -8 2 -23 11 -32 15 -15 17 -15 33 0 13 14 14 20 3 32
-16 20 -39 20 -47 0z"/>
</g>
</svg>
