<?xml version="1.0" standalone="no"?>
<!DOCTYPE svg PUBLIC "-//W3C//DTD SVG 20010904//EN"
 "http://www.w3.org/TR/2001/REC-SVG-20010904/DTD/svg10.dtd">
<svg version="1.0" xmlns="http://www.w3.org/2000/svg"
 width="368.000000pt" height="342.000000pt" viewBox="0 0 368.000000 342.000000"
 preserveAspectRatio="xMidYMid meet">

<g transform="translate(0.000000,342.000000) scale(0.100000,-0.100000)"
fill="#000000" stroke="none">
<path d="M1753 2665 c-103 -22 -182 -74 -260 -169 l-31 -39 -66 14 c-132 26
-284 -22 -384 -122 -215 -215 -171 -559 92 -713 l66 -39 0 -250 c0 -224 -2
-252 -17 -270 -15 -15 -19 -42 -21 -139 -2 -66 -1 -136 3 -154 12 -68 -35 -64
719 -64 649 0 684 1 699 18 24 26 25 313 2 332 -13 10 -15 54 -15 274 l0 261
54 28 c267 139 317 498 100 712 -105 103 -249 150 -388 126 l-71 -12 -19 28
c-62 87 -167 156 -273 178 -82 18 -109 18 -190 0z m201 -60 c32 -8 78 -27 102
-41 52 -31 134 -119 134 -144 0 -29 15 -32 72 -15 230 68 476 -87 506 -320 23
-179 -65 -342 -223 -416 l-65 -31 0 -294 c0 -257 2 -294 15 -294 13 0 15 -20
13 -137 l-3 -138 -657 -3 -658 -2 0 140 c0 118 2 140 15 140 13 0 15 39 15
294 l0 294 -62 30 c-251 117 -304 443 -105 643 59 60 155 102 239 107 95 6
136 -3 140 -31 2 -14 11 -23 24 -25 17 -2 27 7 44 43 44 92 156 180 257 204
59 14 134 12 197 -4z"/>
<path d="M2061 2350 c-19 -11 -9 -45 14 -45 13 0 21 8 23 21 3 23 -17 37 -37
24z"/>
<path d="M1407 2244 c-12 -12 -8 -42 6 -47 21 -8 39 8 35 29 -3 19 -29 30 -41
18z"/>
<path d="M1964 2205 c-9 -21 3 -45 21 -45 21 0 30 27 15 45 -16 19 -29 19 -36
0z"/>
<path d="M1440 2075 c-15 -18 -6 -45 13 -45 8 0 20 6 26 14 9 11 8 18 -4 30
-20 20 -20 20 -35 1z"/>
<path d="M1570 1614 c-11 -12 -10 -18 3 -32 16 -15 18 -15 34 0 13 14 14 20 3
32 -7 9 -16 16 -20 16 -4 0 -13 -7 -20 -16z"/>
<path d="M2094 1615 c-9 -23 4 -47 23 -43 22 4 30 38 11 49 -19 13 -28 11 -34
-6z"/>
<path d="M1571 1486 c-17 -20 -2 -48 23 -44 27 4 32 34 8 47 -15 8 -23 7 -31
-3z"/>
<path d="M2094 1485 c-9 -21 3 -45 21 -45 21 0 30 27 15 45 -16 19 -29 19 -36
0z"/>
<path d="M1564 1345 c-4 -9 -2 -21 4 -27 16 -16 47 -5 47 17 0 26 -42 34 -51
10z"/>
<path d="M2092 1338 c4 -30 43 -33 43 -3 0 13 -8 21 -23 23 -20 3 -23 0 -20
-20z"/>
<path d="M1304 1086 c-8 -21 3 -36 27 -36 15 0 20 6 17 22 -4 27 -35 37 -44
14z"/>
<path d="M1434 1085 c-8 -20 4 -35 26 -35 25 0 35 17 20 35 -16 19 -39 19 -46
0z"/>
<path d="M1564 1085 c-8 -20 4 -35 26 -35 23 0 32 13 24 34 -8 20 -43 21 -50
1z"/>
<path d="M1696 1084 c-4 -10 -2 -22 3 -27 15 -15 46 -3 46 18 0 26 -40 33 -49
9z"/>
<path d="M1827 1087 c-8 -21 8 -39 29 -35 27 5 25 42 -2 46 -12 2 -24 -3 -27
-11z"/>
<path d="M1960 1075 c0 -22 4 -26 23 -23 14 2 22 10 22 23 0 13 -8 21 -22 23
-19 3 -23 -1 -23 -23z"/>
<path d="M2097 1094 c-4 -4 -7 -16 -7 -26 0 -13 7 -18 26 -18 21 0 25 4 22 22
-3 23 -27 35 -41 22z"/>
<path d="M2224 1086 c-8 -21 3 -36 27 -36 15 0 20 6 17 22 -4 27 -35 37 -44
14z"/>
<path d="M2354 1086 c-8 -21 3 -36 27 -36 15 0 20 6 17 22 -4 27 -35 37 -44
14z"/>
</g>
</svg>
